<svg width="16" height="24" viewBox="0 0 16 24" fill="none" xmlns="http://www.w3.org/2000/svg">
<path d="M1.33382 12.9365L12.0141 23.6166C12.2611 23.8638 12.5909 24 12.9425 24C13.2941 24 13.6239 23.8638 13.8709 23.6166L14.6574 22.8303C15.1692 22.3179 15.1692 21.4851 14.6574 20.9735L5.68891 12.005L14.6674 3.02651C14.9144 2.77929 15.0508 2.44974 15.0508 2.09832C15.0508 1.74652 14.9144 1.41696 14.6674 1.16955L13.8808 0.383411C13.6336 0.136193 13.3041 9.5248e-09 12.9525 -2.12137e-08C12.6009 -5.19521e-08 12.2711 0.136193 12.0241 0.383411L1.33382 11.0733C1.08621 11.3213 0.950215 11.6524 0.950995 12.0044C0.950215 12.3578 1.08621 12.6887 1.33382 12.9365Z" fill="white"/>
</svg>
